# xmcd
#
# Track frame offsets:
#	150
#	9585
#	27183
#	41549
#	53016
#	61483
#	73279
#	84765
#	97466
#	109229
#	117604
#	129454
#	140277
#	149267
#	159596
#
# Disc length: 2277 seconds
#
# Revision: 0
# Processed by: cddbd v1.5.2PL0 Copyright (c) Steve Scherf et al.
# Submitted via: dBpowerAMP V4.0
#
DISCID=d708e30f
DTITLE=Various Artist - I BELIEVE
DYEAR=1900
DGENRE=Rock and Roll
TTITLE0=ELVIS PRESLEY - Track01
TTITLE1=ELVIS PRESLEY - Track02
TTITLE2=ELVIS PRESLEY - Track03
TTITLE3=ELVIS PRESLEY - Track04
TTITLE4=ELVIS PRESLEY - Track05
TTITLE5=ELVIS PRESLEY - Track06
TTITLE6=ELVIS PRESLEY - Track07
TTITLE7=ELVIS PRESLEY - Track08
TTITLE8=ELVIS PRESLEY - Track09
TTITLE9=ELVIS PRESLEY - Track10
TTITLE10=ELVIS PRESLEY - Track11
TTITLE11=ELVIS PRESLEY - Track12
TTITLE12=ELVIS PRESLEY - Track13
TTITLE13=ELVIS PRESLEY - Track14
TTITLE14=ELVIS PRESLEY - Track15
EXTD=ELVIS PRESLEY - I BELIEVE
EXTT0=
EXTT1=
EXTT2=
EXTT3=
EXTT4=
EXTT5=
EXTT6=
EXTT7=
EXTT8=
EXTT9=
EXTT10=
EXTT11=
EXTT12=
EXTT13=
EXTT14=
PLAYORDER=
